<?xml version="1.0" standalone="no"?><!DOCTYPE svg PUBLIC "-//W3C//DTD SVG 1.1//EN" "http://www.w3.org/Graphics/SVG/1.1/DTD/svg11.dtd"><svg t="1767874517800" class="icon" viewBox="0 0 1119 1024" version="1.1" xmlns="http://www.w3.org/2000/svg" p-id="19955" xmlns:xlink="http://www.w3.org/1999/xlink" width="52.453125" height="48"><path d="M981.453929 987.893725H131.111362A94.93273 94.93273 0 0 1 36.250989 892.888638V209.908423a95.077445 95.077445 0 0 1 94.860373-94.788016h164.902205v57.885811H131.111362a36.685133 36.685133 0 0 0-36.974562 36.902205v682.980215a36.685133 36.685133 0 0 0 36.685133 36.612775h857.505936a36.685133 36.685133 0 0 0 36.178632-36.612775V209.908423a36.685133 36.685133 0 0 0-36.178632-36.612776h-159.909554v-57.885811h159.981911a95.222159 95.222159 0 0 1 94.788016 94.498587v682.980215a95.149802 95.149802 0 0 1-94.788016 94.788015zM787.608819 234.509893a28.942906 28.942906 0 0 1-28.942906-28.942906V65.193895a28.942906 28.942906 0 0 1 57.885811 0v140.373092a28.942906 28.942906 0 0 1-28.942905 28.942906z m-444.924817 0a28.942906 28.942906 0 0 1-20.332391-8.321086 29.377049 29.377049 0 0 1-8.538157-20.477105V65.193895a28.942906 28.942906 0 0 1 57.885811 0v140.373092a28.942906 28.942906 0 0 1-28.942905 28.942906z m44.933861-61.214246v-57.885811h357.30017v57.885811z" fill="#FF9900" p-id="19956"></path><path d="M795.712832 515.907292a31.041266 31.041266 0 0 0-26.193329-35.093273l-126.191069-18.523459-56.366309-114.541549a31.403053 31.403053 0 0 0-14.037309-13.964952 30.751837 30.751837 0 0 0-41.24364 14.037309l-34.297343 70.186546a26.120972 26.120972 0 0 0 11.794234 34.803844 25.3974 25.3974 0 0 0 19.82589 1.230074 25.686829 25.686829 0 0 0 15.050311-13.096665l15.773883-31.981911 42.401357 86.177501a30.390051 30.390051 0 0 0 23.226682 16.859243l95.149802 14.037309-68.884115 67.002827a30.534765 30.534765 0 0 0-8.827586 27.206331l16.135669 94.788016-85.019785-44.933861a31.330695 31.330695 0 0 0-28.942905 0l-85.019786 44.572074 16.425099-94.498586a30.67948 30.67948 0 0 0-8.827586-27.351046l-68.739401-67.147541 49.637083-7.235727a26.120972 26.120972 0 0 0 20.91125-30.172979 25.469757 25.469757 0 0 0-10.781233-16.714528 24.746184 24.746184 0 0 0-19.174675-4.196721l-90.15715 12.95195a30.896552 30.896552 0 0 0-17.293387 52.603731L423.289994 622.127756l-21.707179 125.539853a30.968909 30.968909 0 0 0 21.200678 34.731487 31.185981 31.185981 0 0 0 23.516111-2.170718l112.949689-59.115885 112.877332 59.477671a31.47541 31.47541 0 0 0 14.471453 3.545506 29.88355 29.88355 0 0 0 17.148672-5.643867 30.67948 30.67948 0 0 0 12.445449-30.245336l-21.707179-125.684568 91.387224-88.927077a30.896552 30.896552 0 0 0 9.840588-17.72753z" fill="#FF9900" p-id="19957"></path><path d="M469.309214 480.814019h0.506501a27.49576 27.49576 0 0 0 24.890899-15.629169l0.940644-1.736574a28.219333 28.219333 0 0 0-12.95195-37.698135 28.146976 28.146976 0 0 0-37.55342 12.807236l-0.868287 1.736574a28.942906 28.942906 0 0 0-2.894291 12.228378 28.146976 28.146976 0 0 0 27.929904 28.29169z" fill="#FF9900" p-id="19958"></path></svg>