<?xml version="1.0" standalone="no"?><!DOCTYPE svg PUBLIC "-//W3C//DTD SVG 1.1//EN" "http://www.w3.org/Graphics/SVG/1.1/DTD/svg11.dtd"><svg t="1767874245764" class="icon" viewBox="0 0 1024 1024" version="1.1" xmlns="http://www.w3.org/2000/svg" p-id="12563" width="48" height="48" xmlns:xlink="http://www.w3.org/1999/xlink"><path d="M512 512m-512 0a512 512 0 1 0 1024 0 512 512 0 1 0-1024 0Z" fill="#F24827" p-id="12564"></path><path d="M713.953882 364.318118a133.647059 133.647059 0 0 0-189.003294 0l-13.327059 13.327058-13.342117-13.327058a133.647059 133.647059 0 0 0-189.003294 0 133.632 133.632 0 0 0 0 188.988235l13.327058 13.342118 189.018353 160.918588 188.988236-160.933647 13.342117-13.327059a133.662118 133.662118 0 0 0 0-188.988235z" fill="#FFFFFF" p-id="12565"></path></svg>